<?xml version="1.0" encoding="UTF-8"?>
<svg width="512" height="512" viewBox="0 0 512 512" fill="none" xmlns="http://www.w3.org/2000/svg">
    <!-- Background Circle -->
    <circle cx="256" cy="256" r="240" fill="#1A1A1A" />

    <!-- Neural Network Nodes -->
    <circle cx="256" cy="256" r="40" fill="#4CAF50" />
    <circle cx="156" cy="156" r="30" fill="#4CAF50" />
    <circle cx="356" cy="156" r="30" fill="#4CAF50" />
    <circle cx="156" cy="356" r="30" fill="#4CAF50" />
    <circle cx="356" cy="356" r="30" fill="#4CAF50" />

    <!-- Neural Network Connections -->
    <line x1="256" y1="216" x2="256" y2="186" stroke="#4CAF50" stroke-width="8"
        stroke-linecap="round" />
    <line x1="256" y1="296" x2="256" y2="326" stroke="#4CAF50" stroke-width="8"
        stroke-linecap="round" />
    <line x1="216" y1="256" x2="186" y2="256" stroke="#4CAF50" stroke-width="8"
        stroke-linecap="round" />
    <line x1="296" y1="256" x2="326" y2="256" stroke="#4CAF50" stroke-width="8"
        stroke-linecap="round" />

    <!-- Cannabis Leaf -->
    <path
        d="M256 120 C 256 120, 200 160, 200 200 C 200 240, 256 280, 256 280 C 256 280, 312 240, 312 200 C 312 160, 256 120, 256 120"
        fill="#4CAF50"
        stroke="#2E7D32"
        stroke-width="4" />

    <!-- Leaf Details -->
    <path
        d="M256 160 C 256 160, 220 180, 220 200 C 220 220, 256 240, 256 240 C 256 240, 292 220, 292 200 C 292 180, 256 160, 256 160"
        fill="#2E7D32" />

    <!-- AI Circuit Lines -->
    <path d="M156 156 L 356 356" stroke="#4CAF50" stroke-width="4" stroke-dasharray="8 8" />
    <path d="M356 156 L 156 356" stroke="#4CAF50" stroke-width="4" stroke-dasharray="8 8" />

    <!-- Glow Effect -->
    <circle cx="256" cy="256" r="200" fill="url(#glow)" opacity="0.3" />

    <!-- Gradient Definition -->
    <defs>
        <radialGradient id="glow" cx="0.5" cy="0.5" r="0.5" gradientUnits="userSpaceOnUse">
            <stop offset="0%" stop-color="#4CAF50" stop-opacity="0.5" />
            <stop offset="100%" stop-color="#4CAF50" stop-opacity="0" />
        </radialGradient>
    </defs>
</svg> 