<?xml version="1.0" encoding="UTF-8"?>
<svg width="32" height="32" viewBox="0 0 32 32" fill="none" xmlns="http://www.w3.org/2000/svg">
    <!-- Background Circle -->
    <circle cx="16" cy="16" r="15" fill="#1A1A1A" />

    <!-- Neural Network Nodes -->
    <circle cx="16" cy="16" r="3" fill="#4CAF50" />
    <circle cx="10" cy="10" r="2" fill="#4CAF50" />
    <circle cx="22" cy="10" r="2" fill="#4CAF50" />
    <circle cx="10" cy="22" r="2" fill="#4CAF50" />
    <circle cx="22" cy="22" r="2" fill="#4CAF50" />

    <!-- Neural Network Connections -->
    <line x1="16" y1="13" x2="16" y2="11" stroke="#4CAF50" stroke-width="1" stroke-linecap="round" />
    <line x1="16" y1="19" x2="16" y2="21" stroke="#4CAF50" stroke-width="1" stroke-linecap="round" />
    <line x1="13" y1="16" x2="11" y2="16" stroke="#4CAF50" stroke-width="1" stroke-linecap="round" />
    <line x1="19" y1="16" x2="21" y2="16" stroke="#4CAF50" stroke-width="1" stroke-linecap="round" />

    <!-- Cannabis Leaf -->
    <path
        d="M16 8 C 16 8, 13 10, 13 12 C 13 14, 16 16, 16 16 C 16 16, 19 14, 19 12 C 19 10, 16 8, 16 8"
        fill="#4CAF50"
        stroke="#2E7D32"
        stroke-width="0.5" />
</svg> 