<?xml version="1.0" standalone="no"?>
<!DOCTYPE svg PUBLIC "-//W3C//DTD SVG 20010904//EN"
 "http://www.w3.org/TR/2001/REC-SVG-20010904/DTD/svg10.dtd">
<svg version="1.0" xmlns="http://www.w3.org/2000/svg"
 width="1024.000000pt" height="1024.000000pt" viewBox="0 0 1024.000000 1024.000000"
 preserveAspectRatio="xMidYMid meet">

<g transform="translate(0.000000,1024.000000) scale(0.100000,-0.100000)"
fill="#000000" stroke="none">
<path d="M8 10228 c15 -15 16 -48 0 -48 -8 0 -9 -46 -4 -177 3 -98 6 -457 6
-798 -1 -816 1 -988 13 -1195 4 -65 3 -86 -3 -65 -7 22 -8 12 -5 -40 3 -38 6
-88 6 -110 3 -64 17 63 18 163 1 47 5 82 11 82 6 0 10 18 10 40 0 22 5 40 10
40 6 0 10 9 10 20 0 11 5 20 10 20 6 0 10 9 10 20 0 11 5 20 10 20 6 0 10 27
10 60 0 53 2 60 20 60 19 0 20 7 20 100 0 93 1 100 20 100 18 0 20 7 20 80 0
73 2 80 20 80 13 0 20 7 20 20 0 13 -7 20 -20 20 -13 0 -20 7 -20 20 0 19 7
20 160 20 l160 0 0 40 c0 33 3 40 20 40 13 0 20 7 20 20 0 17 7 20 40 20 33 0
40 -3 40 -20 0 -13 7 -20 20 -20 13 0 20 7 20 20 0 19 7 20 120 20 113 0 120
-1 120 -20 0 -13 7 -20 20 -20 13 0 20 -7 20 -20 0 -13 -7 -20 -20 -20 -13 0
-20 -7 -20 -20 0 -13 7 -20 20 -20 18 0 20 -7 20 -60 l0 -60 160 0 160 0 0 80
0 80 80 0 c73 0 80 2 80 20 0 19 7 20 120 20 113 0 120 -1 120 -20 0 -17 7
-20 40 -20 33 0 40 3 40 20 0 17 7 20 40 20 l40 0 0 -40 0 -40 40 0 c33 0 40
3 40 20 0 17 7 20 40 20 l40 0 0 40 0 40 160 0 160 0 0 -40 c0 -33 -3 -40 -20
-40 -17 0 -20 -7 -20 -40 l0 -40 40 0 c33 0 40 -3 40 -20 0 -17 7 -20 40 -20
33 0 40 3 40 20 0 13 7 20 20 20 17 0 20 7 20 40 l0 40 40 0 c33 0 40 -3 40
-20 0 -11 3 -20 6 -20 14 0 34 31 34 55 0 25 2 26 43 23 28 -2 41 -7 39 -16
-1 -8 2 -11 7 -7 6 3 8 12 5 19 -3 7 2 16 10 19 9 4 16 16 16 27 0 11 5 20 10
20 6 0 10 7 10 15 0 20 45 65 65 65 8 0 15 5 15 11 0 6 7 9 15 5 15 -5 39 26
28 38 -3 3 -1 6 5 6 16 0 15 30 0 31 -7 1 3 4 22 8 19 3 35 12 35 19 0 6 4 12
9 11 5 0 17 12 27 28 10 15 19 24 19 20 0 -4 9 -3 21 3 13 7 18 17 15 27 -4
10 -2 13 8 10 17 -7 49 26 39 38 -5 4 -2 5 5 1 14 -9 45 12 37 24 -3 5 0 12 6
16 8 4 9 3 5 -4 -13 -21 5 -13 55 23 32 24 46 41 42 51 -3 9 0 14 8 12 8 -2
15 7 17 20 4 26 8 27 29 7 13 -14 18 -14 32 -2 9 8 30 20 48 28 17 7 29 17 26
23 -3 5 -1 6 4 3 6 -4 73 25 151 63 279 138 442 192 807 265 323 64 282 58
570 75 176 11 321 9 581 -5 111 -6 261 -30 417 -66 49 -11 91 -18 94 -15 4 3
13 1 20 -6 8 -6 40 -12 71 -13 118 -4 122 -5 122 -19 0 -8 4 -18 10 -21 20
-12 100 -33 94 -24 -3 5 -1 9 4 9 6 0 12 -6 15 -13 5 -13 90 -47 126 -50 11
-1 21 -5 21 -9 0 -4 20 -8 45 -8 25 0 45 -4 45 -10 0 -5 25 -10 55 -10 30 0
55 -4 55 -10 0 -5 10 -10 21 -10 17 0 20 -5 17 -24 -4 -17 -1 -23 9 -19 7 3
13 9 13 14 0 5 5 9 10 9 6 0 10 -7 10 -15 0 -8 8 -15 17 -15 32 0 103 -35 103
-50 0 -8 9 -30 21 -49 15 -24 23 -31 29 -22 5 9 14 4 29 -18 12 -17 28 -31 34
-31 7 0 6 4 -3 10 -13 8 -13 10 1 10 9 0 22 -6 28 -14 6 -8 22 -11 37 -8 23 4
25 2 19 -17 -5 -18 -2 -21 20 -21 20 0 26 -4 22 -14 -4 -9 -1 -13 7 -10 6 2
27 -13 45 -36 18 -23 27 -40 19 -40 -7 -1 -3 -9 11 -20 12 -11 28 -17 34 -13
5 3 7 1 4 -4 -4 -6 10 -28 30 -49 30 -33 33 -34 15 -8 -26 38 -15 54 40 54 31
0 38 -4 38 -20 0 -17 7 -20 40 -20 l40 0 0 -60 c0 -33 4 -60 10 -60 6 0 10 5
10 11 0 6 7 4 15 -5 8 -8 15 -22 15 -30 0 -9 7 -16 15 -16 8 0 15 -9 15 -20 0
-17 7 -20 40 -20 l40 0 0 40 0 40 40 0 40 0 0 -60 0 -60 80 0 c73 0 80 -2 80
-20 0 -13 7 -20 20 -20 17 0 20 7 20 40 0 33 3 40 20 40 13 0 20 7 20 20 0 13
7 20 20 20 17 0 20 7 20 40 0 33 -3 40 -20 40 -17 0 -20 7 -20 40 l0 40 -80 0
c-73 0 -80 2 -80 20 0 13 7 20 20 20 17 0 20 7 20 40 0 33 -3 40 -20 40 -13 0
-20 7 -20 20 0 13 7 20 20 20 17 0 20 7 20 40 l0 40 40 0 c33 0 40 3 40 20 0
13 7 20 20 20 17 0 20 -7 20 -40 0 -33 3 -40 20 -40 13 0 20 7 20 20 0 13 7
20 20 20 13 0 20 7 20 20 0 16 7 20 30 20 23 0 30 4 30 20 0 11 5 20 10 20 6
0 10 9 10 20 0 17 7 20 40 20 33 0 40 3 40 20 0 18 7 20 60 20 53 0 60 -2 60
-20 0 -18 7 -20 60 -20 53 0 60 2 60 20 0 19 7 20 140 20 121 0 140 2 140 16
0 17 23 44 38 44 6 0 13 6 15 13 4 8 8 8 14 2 14 -17 52 -35 73 -35 13 0 20
-7 20 -20 0 -13 7 -20 20 -20 13 0 20 -7 20 -20 0 -13 7 -20 20 -20 13 0 20
-7 20 -20 0 -13 7 -20 20 -20 13 0 20 -7 20 -20 0 -18 7 -20 60 -20 l60 0 0
-40 0 -40 40 0 c33 0 40 -3 40 -20 0 -17 7 -20 40 -20 33 0 40 -3 40 -20 0
-13 7 -20 20 -20 13 0 20 -7 20 -20 0 -13 -7 -20 -20 -20 -13 0 -20 -7 -20
-20 0 -13 -7 -20 -20 -20 -32 0 -205 -66 -273 -103 -70 -40 -180 -124 -215
-165 -13 -15 -44 -61 -68 -102 -48 -79 -50 -67 -4 40 92 216 112 348 95 610
-6 100 -10 120 -18 100 -6 -14 -42 -90 -80 -170 -87 -182 -92 -197 -118 -333
-20 -108 -22 -199 -4 -292 4 -24 2 -22 -11 10 -8 22 -18 60 -21 84 -7 67 -41
190 -64 239 -24 48 -114 171 -179 242 -35 39 -40 42 -36 20 3 -14 10 -65 16
-115 13 -103 33 -152 90 -213 22 -24 40 -46 40 -48 0 -3 -21 13 -47 34 -86 71
-168 122 -171 107 -5 -23 65 -164 119 -236 28 -38 72 -88 98 -111 48 -43 132
-137 96 -106 -49 40 -150 82 -200 82 -50 0 -115 -19 -115 -34 0 -13 67 -49
133 -71 34 -12 96 -24 137 -28 l75 -7 -56 -12 c-31 -7 -81 -30 -114 -51 -47
-31 -61 -46 -70 -79 l-12 -40 71 20 c96 27 165 59 209 98 l37 32 0 -30 c0 -67
32 -113 115 -166 76 -49 82 -51 58 -25 -24 27 -103 168 -103 184 1 6 6 3 13
-6 19 -25 46 -35 142 -54 50 -9 94 -21 99 -26 6 -5 17 -9 25 -9 12 1 10 5 -6
19 -13 11 -23 24 -23 29 0 9 55 26 73 23 4 0 7 3 7 9 0 5 9 10 20 10 11 0 20
5 20 10 0 6 -20 10 -45 10 -24 0 -65 7 -90 16 -26 8 -79 24 -118 34 l-72 19
55 1 c111 1 186 32 369 154 103 68 111 76 83 76 -17 0 -51 -4 -74 -10 -24 -5
-78 -17 -120 -26 -46 -9 -117 -35 -175 -63 -104 -51 -171 -76 -179 -68 -3 3
19 16 48 30 29 15 97 54 151 89 81 52 116 84 203 183 111 127 131 148 120 128
-3 -6 -2 -14 3 -17 5 -3 7 -15 4 -26 -6 -22 12 -28 21 -7 5 10 7 10 12 0 3 -7
14 -13 25 -13 12 0 19 -7 19 -20 0 -18 7 -20 60 -20 53 0 60 -2 60 -20 0 -17
7 -20 40 -20 33 0 40 -3 40 -20 0 -11 5 -20 10 -20 6 0 10 -9 10 -20 0 -16 7
-20 30 -20 28 0 30 -2 30 -40 l0 -40 60 0 c53 0 60 -2 60 -20 0 -18 7 -20 60
-20 53 0 60 -2 60 -20 0 -18 7 -20 80 -20 73 0 80 -2 80 -20 0 -19 7 -20 100
-20 93 0 100 -1 100 -20 0 -18 7 -20 60 -20 l60 0 0 800 0 800 -5122 0 c-3984
0 -5119 -3 -5110 -12z m8712 -618 c0 -5 -4 -10 -10 -10 -5 0 -10 5 -10 10 0 6
5 10 10 10 6 0 10 -4 10 -10z m-1486 -418 c3 -5 -1 -9 -9 -9 -8 0 -12 4 -9 9
3 4 7 8 9 8 2 0 6 -4 9 -8z m-4514 -276 c0 -3 -4 -8 -10 -11 -5 -3 -10 -1 -10
4 0 6 5 11 10 11 6 0 10 -2 10 -4z m5791 -303 c13 -16 12 -17 -3 -4 -10 7 -18
15 -18 17 0 8 8 3 21 -13z m-8474 -555 c-3 -8 -6 -5 -6 6 -1 11 2 17 5 13 3
-3 4 -12 1 -19z"/>
<path d="M4845 9670 c-427 -23 -936 -154 -1263 -326 -125 -66 -282 -161 -354
-214 -86 -65 -211 -197 -304 -322 -163 -218 -341 -657 -349 -859 -2 -59 -3
-60 -63 -117 -38 -35 -69 -75 -81 -104 -28 -67 -50 -189 -61 -352 -6 -77 -11
-140 -13 -141 -1 -1 -94 -47 -207 -102 -340 -168 -590 -326 -737 -467 -243
-231 -341 -429 -312 -631 39 -275 226 -497 597 -709 80 -45 152 -79 332 -153
47 -19 86 -36 88 -38 2 -2 -57 -93 -131 -202 -390 -574 -467 -704 -527 -883
-44 -131 -35 -283 22 -355 28 -36 112 -75 163 -75 96 0 237 60 291 123 28 33
30 30 9 -15 -25 -56 -144 -382 -190 -521 -102 -307 -95 -483 23 -587 53 -47
93 -56 175 -40 152 30 262 130 339 310 15 36 28 58 28 50 0 -8 -16 -108 -35
-221 -56 -340 -68 -467 -63 -699 6 -228 18 -287 76 -373 42 -60 89 -88 161
-94 157 -15 296 129 339 351 9 47 19 86 23 86 5 0 14 -77 49 -430 23 -232 50
-375 85 -463 94 -231 257 -313 405 -206 48 35 113 164 129 254 6 34 9 146 7
259 l-4 198 30 -28 c41 -40 51 -61 118 -258 106 -308 154 -403 253 -492 78
-71 143 -97 226 -92 91 5 138 35 178 115 26 54 28 67 29 178 1 94 5 127 18
154 10 19 26 58 36 87 24 68 84 204 90 203 3 0 21 -22 40 -48 19 -27 93 -120
163 -207 93 -116 140 -183 172 -249 56 -117 63 -125 110 -131 53 -6 85 2 86
24 0 14 2 14 9 -3 5 -11 9 -64 9 -118 1 -90 3 -100 26 -122 13 -14 28 -25 33
-25 17 0 61 75 67 115 11 66 15 73 41 78 19 3 24 1 19 -11 -5 -12 -3 -13 11
-2 22 19 51 79 65 136 7 27 16 54 20 60 5 6 6 14 2 17 -3 4 2 17 13 29 10 12
13 18 7 14 -7 -4 -13 -3 -13 3 0 5 8 12 18 15 10 4 38 30 61 59 23 28 103 114
177 189 74 75 138 147 143 160 7 17 10 19 14 8 2 -8 19 -61 37 -117 18 -57 45
-122 60 -146 28 -41 29 -44 21 -130 -9 -94 -1 -158 25 -209 43 -86 133 -136
219 -123 74 11 159 60 220 127 75 83 139 213 225 457 64 183 107 271 132 271
5 0 8 -93 8 -207 -1 -293 18 -369 110 -464 120 -124 307 -74 403 109 66 125
114 363 147 737 12 125 26 232 29 204 3 -46 56 -200 81 -239 74 -114 158 -172
250 -172 105 0 186 65 228 184 48 137 47 517 -4 803 -7 44 -25 143 -39 220
-13 77 -25 145 -25 150 0 6 15 -15 33 -45 120 -199 226 -286 363 -297 144 -13
233 98 235 291 1 145 -59 358 -196 686 -98 238 -97 231 -33 170 79 -76 145
-105 238 -105 88 1 140 23 189 82 93 112 74 284 -59 547 -59 116 -268 457
-448 729 -58 87 -101 162 -96 166 5 4 45 20 89 35 287 98 652 345 775 526 353
521 59 966 -966 1462 l-161 77 -7 113 c-19 305 -37 368 -138 473 -57 58 -58
61 -58 116 0 185 -198 672 -362 890 -202 269 -431 431 -873 619 -98 41 -280
99 -390 125 -177 40 -377 77 -493 89 -137 14 -478 17 -687 6z m705 -129 c36
-6 112 -18 170 -26 167 -25 459 -101 596 -155 168 -67 389 -179 497 -252 96
-65 256 -210 238 -216 -6 -2 -69 30 -139 71 -194 113 -213 123 -297 151 -54
18 -82 23 -89 16 -7 -7 -6 -10 4 -10 27 0 90 -35 85 -47 -3 -8 17 -24 48 -39
87 -44 153 -100 303 -254 19 -19 34 -38 34 -42 0 -5 -35 11 -77 33 -69 37
-263 124 -303 135 -8 2 11 -9 42 -24 32 -16 55 -32 51 -36 -3 -3 -1 -6 5 -6 7
0 11 -11 10 -24 -2 -17 -7 -22 -23 -19 -19 4 -19 3 -1 -9 107 -72 156 -104
190 -123 23 -12 51 -39 62 -60 21 -36 40 -113 30 -122 -3 -3 -31 11 -64 31
-107 65 -496 218 -559 220 -22 1 -36 4 -30 8 12 8 -15 12 -61 10 -12 -1 -20 3
-17 8 4 6 1 10 -4 10 -6 0 -11 -11 -11 -24 0 -21 -5 -24 -41 -24 -62 -1 -57
-8 18 -26 200 -49 514 -185 667 -288 45 -30 69 -68 44 -68 -6 0 -3 -12 7 -26
9 -14 14 -28 12 -31 -3 -2 -28 7 -57 22 -74 38 -412 150 -570 190 -286 71
-479 106 -710 125 -276 24 -400 30 -500 25 -58 -3 -171 -7 -252 -10 -80 -3
-157 -8 -170 -10 -12 -2 -50 -6 -83 -10 -80 -8 -124 -13 -160 -20 -16 -2 -50
-7 -75 -10 -144 -17 -585 -130 -815 -208 -109 -38 -310 -125 -415 -180 -52
-28 -138 -72 -190 -100 -52 -27 -108 -59 -125 -71 -16 -12 -54 -37 -84 -55
l-53 -32 6 38 c4 21 34 119 67 217 106 317 232 538 422 742 136 146 511 356
807 453 252 82 581 146 810 158 58 3 107 8 110 10 9 9 574 -5 640 -16z m1635
-921 c28 -31 10 -36 -25 -6 -26 21 -28 26 -12 26 10 0 27 -9 37 -20z m-1495
-144 c69 -9 148 -20 175 -26 371 -73 521 -110 730 -182 151 -52 158 -56 152
-84 -2 -13 0 -24 4 -24 5 0 9 -9 9 -20 0 -11 6 -20 14 -20 19 0 26 -22 26 -85
l0 -52 48 -14 c26 -7 52 -17 57 -21 6 -5 44 -25 85 -46 153 -78 303 -162 331
-186 15 -13 53 -38 82 -55 30 -17 81 -57 114 -88 33 -32 55 -55 49 -50 -16 11
-33 8 -50 -8 -8 -8 -29 -18 -45 -21 -24 -5 -31 -3 -31 10 0 9 -7 16 -15 16 -9
0 -15 -9 -15 -22 0 -12 -3 -19 -6 -15 -4 3 -23 -1 -43 -9 -36 -14 -39 -14
-146 37 -61 28 -150 68 -200 89 -49 21 -132 57 -182 79 -151 66 -532 180 -753
225 -261 53 -486 70 -925 70 -395 1 -503 -3 -660 -24 -44 -6 -98 -13 -120 -16
-204 -26 -496 -95 -725 -169 -183 -60 -561 -215 -716 -294 -83 -41 -303 -131
-324 -131 -6 0 -33 -11 -60 -25 -61 -31 -72 -31 -65 -2 2 12 9 76 15 142 11
130 32 219 58 249 10 10 35 27 57 39 22 11 85 50 140 87 88 59 255 154 255
144 0 -3 -124 -90 -287 -201 -42 -29 -80 -56 -85 -61 -10 -10 -51 -199 -46
-212 2 -5 39 19 83 52 169 128 475 318 553 342 12 4 22 11 22 16 0 5 -7 7 -15
4 -8 -4 -15 -2 -15 2 0 19 41 75 59 82 11 4 19 12 19 17 0 6 9 14 21 20 11 5
21 18 21 27 0 10 5 18 10 18 6 0 10 -4 10 -10 0 -5 5 -10 10 -10 6 0 10 9 10
20 0 16 7 20 30 20 17 0 30 5 30 10 0 6 9 10 20 10 17 0 20 7 20 39 0 37 2 39
58 64 72 32 349 119 462 146 106 25 314 68 360 75 72 10 298 37 390 45 154 15
794 6 940 -13z m30 -830 c102 -9 196 -18 210 -20 14 -3 70 -10 125 -16 483
-52 1089 -208 1585 -408 394 -158 735 -345 993 -544 135 -104 210 -182 273
-286 70 -116 87 -177 82 -302 -4 -94 -8 -113 -40 -181 -19 -42 -39 -79 -44
-82 -5 -3 -10 33 -10 78 -3 129 -40 202 -201 386 -60 69 -118 124 -167 158
-90 62 -647 337 -831 411 -164 65 -313 116 -320 108 -4 -3 -7 -22 -8 -42 -1
-20 -7 -36 -13 -36 -10 0 -8 32 11 168 9 66 -2 67 -48 4 -43 -58 -84 -97 -74
-70 4 12 -1 21 -14 28 -20 11 -301 95 -439 131 -41 11 -104 29 -140 40 -36 11
-128 31 -205 44 -207 36 -206 36 -215 59 -9 21 -9 20 -9 -2 -1 -13 -5 -31 -10
-40 -6 -11 -4 -31 4 -55 11 -33 11 -39 -2 -44 -25 -10 -33 11 -46 128 -13 111
-27 159 -48 159 -14 0 -29 -45 -29 -88 0 -63 -6 -66 -112 -58 -51 3 -165 11
-253 16 -88 5 -202 15 -252 21 -73 9 -96 9 -108 -1 -15 -12 -20 -4 -16 22 0 5
-6 16 -15 25 -16 17 -90 138 -134 216 -27 49 -40 47 -40 -5 0 -24 -4 -61 -9
-83 -5 -22 -12 -70 -16 -107 l-7 -68 -121 0 c-67 0 -171 -5 -232 -11 -60 -5
-238 -14 -395 -19 -238 -7 -306 -13 -410 -33 -69 -14 -141 -27 -160 -30 -19
-3 -49 -11 -67 -18 -31 -13 -33 -12 -85 38 -29 28 -54 57 -56 64 -9 36 -70 80
-117 85 -48 5 -54 -28 -30 -161 8 -44 14 -99 15 -123 l0 -42 -42 26 c-24 14
-48 32 -54 40 -11 14 -48 6 -129 -27 -37 -15 -179 -58 -250 -75 -38 -10 -73
-22 -76 -27 -4 -5 -20 -7 -37 -4 -26 5 -29 3 -25 -13 6 -22 -16 -33 -182 -90
-113 -38 -352 -137 -408 -169 -99 -56 -179 -109 -232 -155 -83 -71 -92 -81
-87 -94 2 -7 -1 -12 -6 -12 -6 0 -36 36 -67 81 -50 70 -97 110 -112 95 -3 -2
7 -51 21 -109 14 -58 26 -109 26 -113 0 -5 -19 -8 -42 -6 -39 3 -48 -1 -103
-50 -33 -29 -73 -67 -89 -85 l-28 -33 26 10 c25 9 26 8 20 -18 -4 -15 -11 -33
-17 -39 -5 -7 -6 -13 -1 -14 5 0 -1 -4 -14 -10 -13 -5 -21 -13 -18 -18 8 -12
-14 -26 -48 -30 -31 -3 -62 -32 -72 -68 -3 -12 -17 -29 -30 -38 -13 -8 -24
-23 -25 -33 0 -14 -2 -14 -9 3 -10 22 -10 21 -16 -52 -2 -29 0 -53 4 -53 4 0
8 -15 9 -34 2 -80 31 -67 40 18 4 36 10 56 19 56 7 0 14 6 17 13 2 6 5 1 5
-13 2 -74 43 -197 72 -215 13 -8 5 -56 -11 -66 -6 -4 -8 -12 -5 -18 4 -6 12
-9 17 -5 5 3 28 -10 51 -28 23 -18 39 -27 35 -21 -6 10 -2 11 17 3 24 -9 30
-6 27 13 -1 4 12 -2 29 -14 22 -17 27 -25 18 -32 -9 -5 -6 -7 7 -4 11 3 38 -5
60 -18 87 -52 276 -145 331 -164 32 -12 79 -24 106 -27 l47 -7 -22 -28 c-12
-15 -28 -28 -34 -28 -70 -4 -515 208 -595 282 -15 14 -52 42 -81 61 -128 85
-226 212 -269 349 -25 80 -26 223 -3 287 63 174 278 393 555 565 224 138 586
319 820 410 429 167 965 310 1389 371 109 15 125 17 226 29 32 4 67 8 76 10
220 42 1017 54 1419 21z m347 -433 c-13 -59 -12 -57 -34 -44 -17 10 -17 10 0
11 9 0 16 3 15 8 0 4 2 15 5 25 4 9 9 24 12 32 10 33 12 12 2 -32z m-1059 -10
c-21 -2 -55 -2 -75 0 -21 2 -4 4 37 4 41 0 58 -2 38 -4z m535 0 c-13 -2 -33
-2 -45 0 -13 2 -3 4 22 4 25 0 35 -2 23 -4z m100 -10 c-7 -2 -21 -2 -30 0 -10
3 -4 5 12 5 17 0 24 -2 18 -5z m-1276 -9 c-3 -3 -12 -4 -19 -1 -8 3 -5 6 6 6
11 1 17 -2 13 -5z m1431 -1 c-16 -2 -40 -2 -55 0 -16 2 -3 4 27 4 30 0 43 -2
28 -4z m135 -10 c-7 -2 -19 -2 -25 0 -7 3 -2 5 12 5 14 0 19 -2 13 -5z m-2343
-100 c-11 -17 -11 -17 -6 0 3 10 7 26 7 35 1 15 2 15 6 0 2 -10 -1 -25 -7 -35z
m185 37 c13 -6 15 -9 5 -9 -8 0 -22 4 -30 9 -18 12 -2 12 25 0z m2900 -43 c33
-9 75 -20 93 -26 36 -11 37 -11 54 -11 6 0 9 -3 5 -6 -7 -7 -297 55 -310 66
-11 9 85 -5 158 -23z m410 -108 c44 -12 91 -23 104 -24 14 -1 27 -7 29 -13 5
-16 2 -16 -128 23 -127 37 -131 47 -5 14z m-1450 -75 c228 -20 469 -70 690
-143 217 -72 358 -125 403 -151 18 -11 39 -20 47 -20 24 0 7 24 -28 39 -17 8
-59 27 -92 42 -91 41 -105 46 -135 48 -28 1 -25 21 3 21 18 0 19 2 7 10 -13 8
-12 10 3 10 9 0 17 -4 17 -10 0 -5 6 -7 13 -4 8 3 54 -9 103 -25 183 -62 237
-81 248 -89 6 -5 44 -19 85 -31 64 -20 159 -66 306 -146 22 -13 54 -42 72 -66
18 -24 42 -56 54 -72 11 -15 22 -34 23 -42 1 -8 5 -18 9 -21 4 -4 7 -16 7 -27
0 -17 -2 -18 -17 -6 -15 12 -16 12 -10 -5 5 -11 3 -22 -3 -26 -6 -4 -12 -17
-13 -28 -1 -21 -10 -25 -52 -25 -32 1 -35 2 -28 19 4 10 1 15 -8 13 -8 -1 -40
24 -73 56 -38 37 -61 54 -65 46 -10 -16 -41 -3 -41 17 0 8 -3 13 -6 9 -7 -7
-44 24 -39 33 3 4 -9 6 -26 4 -18 -2 -28 0 -24 6 6 10 5 11 -34 15 -13 1 -27
8 -31 15 -4 6 -10 11 -14 11 -25 -4 -36 0 -30 11 4 6 3 8 -4 5 -14 -9 -43 3
-36 14 3 5 -4 9 -15 9 -11 0 -62 18 -113 41 -153 67 -304 122 -573 209 -26 8
-267 57 -365 74 -243 41 -861 78 -971 58 -31 -6 -115 -14 -185 -18 -71 -4
-133 -10 -139 -14 -5 -5 -39 -11 -75 -14 -36 -4 -90 -13 -120 -21 -30 -7 -82
-19 -115 -25 -207 -40 -642 -169 -710 -210 -16 -10 -70 -35 -120 -55 -49 -21
-125 -55 -168 -77 -43 -21 -83 -36 -90 -32 -7 4 -9 4 -5 -1 8 -8 -89 -85 -108
-85 -6 0 -19 -9 -29 -20 -10 -12 -25 -18 -32 -16 -7 3 -12 1 -10 -5 1 -6 -8
-18 -21 -26 -18 -13 -22 -13 -20 -2 2 7 9 20 16 27 11 12 17 42 13 65 -1 5 3
6 7 3 15 -9 49 27 74 79 21 44 28 51 78 68 30 10 62 24 70 31 8 7 35 19 60 26
25 8 113 47 195 86 174 83 447 193 555 223 82 22 155 38 240 51 84 13 120 20
185 35 33 8 96 20 140 26 202 28 773 30 1070 3z m-2095 -64 c0 -5 -6 -10 -13
-10 -29 0 -274 -123 -436 -219 -64 -37 -137 -80 -162 -94 -78 -44 -257 -197
-397 -340 -106 -109 -138 -148 -163 -201 -30 -63 -31 -69 -19 -114 14 -53 26
-361 16 -388 -12 -32 -37 8 -46 77 -48 336 -53 404 -42 535 13 151 28 207 52
199 11 -3 56 33 141 115 100 96 125 116 127 100 5 -28 46 -36 77 -16 13 9 31
16 39 16 19 0 68 20 181 75 100 49 159 75 290 130 50 20 127 55 172 76 45 22
94 40 108 41 14 1 25 6 25 9 0 7 18 14 43 18 4 0 7 -3 7 -9z m4100 -52 c10 -6
7 -7 -10 -2 -14 3 -32 11 -40 16 -10 6 -7 7 10 2 14 -3 32 -11 40 -16z m56
-24 c18 -14 18 -14 -6 -3 -31 14 -36 19 -24 19 6 0 19 -7 30 -16z m-429 -184
c109 -56 221 -118 248 -138 28 -20 76 -55 109 -77 57 -38 98 -82 102 -108 2
-17 39 -103 64 -149 30 -55 24 -55 -18 -1 -55 68 -216 220 -312 293 -106 81
-329 220 -452 282 -54 27 -98 51 -98 53 0 13 186 -68 357 -155z m-3807 75 c0
-14 -38 -43 -67 -53 -18 -6 -33 -9 -33 -6 0 3 -19 -8 -42 -24 -53 -36 -223
-112 -251 -112 -20 0 -20 1 -2 20 29 32 118 80 245 132 107 43 150 56 150 43z
m2120 -180 c41 -3 100 -11 130 -16 30 -5 127 -20 214 -34 160 -26 343 -76 446
-122 136 -62 162 -78 230 -140 86 -80 113 -130 145 -271 28 -125 65 -355 65
-406 0 -59 -25 -43 -50 32 -80 242 -260 423 -496 501 -161 54 -307 51 -477 -8
-199 -69 -378 -263 -448 -484 -12 -40 -23 -73 -24 -75 -1 -1 -38 9 -81 24 -66
22 -91 25 -149 21 -38 -3 -94 -15 -123 -26 -29 -12 -54 -21 -56 -21 -3 0 -17
39 -32 86 -90 284 -324 482 -607 514 -148 17 -350 -24 -467 -95 -77 -47 -171
-144 -242 -248 -56 -84 -118 -204 -118 -231 0 -7 -7 -21 -16 -32 -14 -17 -15
-11 -9 81 8 134 69 570 81 584 2 2 10 -1 17 -8 11 -8 18 -6 33 10 89 99 308
208 539 269 113 29 386 71 619 94 135 14 725 14 876 1z m-2550 -125 c0 -5 -7
-10 -16 -10 -8 0 -12 5 -9 10 3 6 10 10 16 10 5 0 9 -4 9 -10z m-113 -185 c-5
-16 -37 -18 -37 -3 0 8 9 14 20 14 11 0 19 -5 17 -11z m-47 -34 c0 -5 -6 -14
-14 -20 -12 -10 -14 -9 -11 6 2 10 4 19 4 21 2 6 21 1 21 -7z m-140 -11 c8 -5
12 -11 10 -13 -3 -2 -26 -20 -52 -41 -27 -21 -48 -34 -48 -30 0 5 -10 -2 -21
-16 -19 -24 -19 -23 2 17 19 39 70 93 87 93 4 0 14 -4 22 -10z m90 -22 c0 -10
-7 -18 -15 -18 -8 0 -15 -4 -15 -10 0 -12 -55 -41 -64 -33 -13 13 -5 42 14 48
11 3 20 13 20 20 0 10 10 13 30 12 21 -1 30 -7 30 -19z m-110 -82 c0 -3 -4 -8
-10 -11 -5 -3 -10 -1 -10 4 0 6 5 11 10 11 6 0 10 -2 10 -4z m6166 -63 c13
-86 9 -138 -15 -176 -35 -56 -161 -169 -273 -243 -95 -62 -340 -191 -397 -209
-14 -4 -53 -20 -88 -36 l-64 -28 -19 32 c-19 30 -19 32 -2 38 9 3 49 16 87 29
242 80 576 296 634 410 24 46 45 135 38 161 -8 29 3 56 14 37 7 -10 9 -10 9 2
0 13 1 13 10 0 8 -12 10 -11 10 8 0 17 6 22 24 22 22 0 26 -6 32 -47z m-5825
-180 c-90 -595 -96 -695 -95 -1433 0 -365 4 -516 17 -650 20 -201 68 -502 103
-640 l24 -95 -21 -18 c-12 -10 -26 -14 -30 -10 -18 20 -72 217 -94 346 -68
395 -89 674 -88 1182 0 488 17 740 74 1100 46 294 67 373 107 410 15 14 28 21
30 16 2 -6 -10 -99 -27 -208z m1235 207 c66 -15 208 -76 267 -116 72 -48 135
-128 188 -239 65 -138 79 -199 78 -336 -1 -63 -4 -125 -8 -139 -4 -14 -7 40
-7 120 1 126 -2 154 -22 214 -31 92 -60 149 -115 221 -57 76 -108 117 -200
160 -266 126 -538 83 -737 -115 -41 -41 -90 -100 -108 -131 -61 -104 -101
-255 -103 -382 -1 -94 -17 -60 -18 38 -1 76 25 202 58 277 76 178 230 331 396
393 107 41 242 55 331 35z m1865 -4 c207 -44 383 -176 473 -353 31 -61 28 -70
-5 -15 -71 119 -169 210 -277 258 -206 91 -403 92 -590 2 -47 -22 -89 -54
-147 -112 -136 -136 -188 -273 -188 -501 0 -135 16 -213 64 -307 16 -32 27
-58 25 -58 -12 0 -76 123 -94 180 -29 92 -34 159 -23 280 16 165 74 305 168
410 161 177 388 259 594 216z m1062 -104 c64 -213 123 -741 134 -1182 6 -265
-15 -843 -37 -1005 -24 -175 -76 -477 -95 -550 -60 -231 -60 -230 -97 -201
-10 7 -18 19 -18 27 0 7 20 94 44 194 24 99 47 199 50 223 l6 42 -52 0 c-29 0
-78 3 -108 7 -45 5 -50 8 -30 14 14 4 62 7 108 8 58 1 82 5 82 14 0 23 49 332
58 372 5 22 12 60 15 85 l6 45 -105 68 c-58 38 -103 71 -101 74 3 2 51 -17
106 -43 56 -26 104 -44 107 -41 10 10 -7 88 -18 81 -6 -4 -8 1 -4 14 13 41 11
103 -4 112 -11 7 -12 10 -2 10 11 0 12 74 8 408 -3 224 -7 427 -9 452 -13 137
-19 192 -28 255 -6 39 -13 97 -15 130 -2 33 -15 132 -28 220 -14 88 -27 189
-30 224 -6 62 -5 64 12 47 11 -9 31 -56 45 -104z m-2895 -12 c95 -27 217 -88
264 -134 133 -130 210 -339 195 -530 -6 -83 -24 -140 -78 -253 -46 -96 -147
-207 -224 -245 -101 -51 -200 -78 -282 -79 -212 -1 -364 58 -482 187 -115 125
-156 253 -149 454 6 140 27 210 100 327 138 221 421 338 656 273z m1815 9 c85
-13 222 -68 289 -116 75 -54 133 -126 181 -225 63 -130 77 -185 77 -299 0
-155 -50 -286 -161 -420 -64 -76 -132 -121 -244 -161 -81 -28 -102 -32 -200
-31 -94 0 -122 4 -194 28 -177 60 -337 228 -409 427 -22 62 -26 90 -26 183 0
140 14 198 77 313 83 152 206 252 359 292 85 22 150 24 251 9z m-4553 -219 c0
-5 -4 -10 -10 -10 -5 0 -10 5 -10 10 0 6 5 10 10 10 6 0 10 -4 10 -10z m1058
-52 c-8 -13 -27 -45 -43 -73 -32 -56 -205 -328 -268 -420 -22 -33 -78 -116
-123 -184 l-82 -123 28 -47 c31 -48 32 -64 3 -39 -30 26 -61 38 -78 32 -13 -5
-45 -53 -45 -67 0 -3 18 -7 40 -11 27 -4 53 -18 78 -42 42 -40 42 -40 -52 5
l-69 34 -18 -24 c-11 -13 -72 -103 -136 -199 -189 -285 -263 -448 -266 -585
-1 -36 -6 -65 -10 -65 -4 0 -17 20 -28 46 -18 40 -19 53 -10 113 22 144 116
332 305 615 109 163 171 253 400 590 104 153 272 370 326 420 54 50 70 58 48
24z m5035 -70 c113 -127 218 -267 352 -470 435 -656 581 -916 617 -1093 12
-62 4 -138 -17 -155 -13 -11 -14 -8 -9 18 18 89 -76 304 -255 587 -27 44 -71
115 -97 158 -45 75 -48 78 -78 72 -17 -3 -66 -23 -108 -44 -43 -22 -78 -36
-78 -32 0 18 155 111 185 111 13 0 13 3 3 21 -10 15 -20 19 -40 15 -31 -6 -33
-3 -18 23 11 21 8 26 -272 444 -109 162 -198 298 -198 303 0 5 -16 33 -35 62
-20 28 -31 52 -26 52 5 0 38 -33 74 -72z m-4370 -134 c106 -42 118 -49 113
-68 -3 -12 -6 -29 -6 -38 0 -25 -32 -23 -120 7 -87 30 -140 67 -140 99 0 20
16 46 29 46 3 0 58 -21 124 -46z m3753 35 c13 -21 5 -71 -13 -85 -27 -22 -101
-54 -173 -75 -36 -10 -66 -19 -67 -19 -2 0 -3 12 -3 26 0 14 -5 35 -11 46 -14
26 -9 29 106 68 50 17 97 35 105 40 20 13 47 12 56 -1z m-1816 -29 c49 -25 60
-36 60 -62 0 -16 -4 -15 -47 4 -66 29 -202 36 -263 13 -80 -29 -80 -29 -80 -6
0 20 48 52 110 72 48 16 172 4 220 -21z m1917 -37 c-3 -10 -5 -4 -5 12 0 17 2
24 5 18 2 -7 2 -21 0 -30z m-4366 -118 c-6 -24 -50 -129 -97 -232 -82 -180
-263 -598 -365 -843 -26 -63 -61 -149 -79 -190 -17 -41 -55 -138 -85 -215 -29
-77 -74 -189 -100 -250 -25 -60 -80 -209 -121 -330 -69 -203 -74 -226 -74
-303 0 -51 6 -96 15 -119 19 -44 14 -51 -21 -29 -57 38 -70 154 -34 320 41
189 334 1000 458 1266 139 299 458 927 490 963 22 25 26 14 13 -38z m2404 26
c70 -31 101 -65 108 -114 4 -25 20 -87 36 -138 57 -179 198 -344 367 -432 134
-69 224 -91 364 -91 103 0 125 4 210 33 202 68 325 168 422 339 17 29 32 51
35 49 2 -3 -3 -29 -11 -58 -9 -30 -27 -119 -40 -199 -57 -333 -132 -509 -326
-765 -66 -89 -101 -143 -105 -168 -6 -28 -19 -47 -52 -75 -105 -87 -135 -118
-170 -176 -114 -193 -184 -269 -317 -345 -121 -69 -247 -90 -323 -54 -38 18
-108 83 -161 150 l-32 41 51 11 c78 17 182 64 270 122 44 28 78 54 75 56 -2 3
-40 -7 -84 -21 -309 -97 -578 -100 -785 -6 -72 32 -74 21 -7 -34 59 -47 156
-92 252 -116 l48 -12 -21 -30 c-38 -53 -132 -149 -160 -164 -17 -8 -56 -14
-96 -14 -177 1 -352 123 -512 359 -62 91 -93 126 -142 163 -105 77 -126 99
-119 128 14 56 -7 108 -78 193 -89 106 -123 157 -177 264 -35 71 -45 84 -51
68 -4 -11 -15 -28 -25 -37 -23 -23 -18 -49 35 -180 20 -48 36 -91 36 -95 0
-16 -52 45 -103 120 -137 206 -190 367 -207 642 -10 154 -5 473 7 461 3 -3 14
-47 24 -98 25 -124 67 -204 157 -299 160 -170 399 -270 613 -256 218 14 489
177 597 360 47 78 99 202 119 281 17 70 37 92 74 83 11 -3 25 0 32 6 6 7 23
14 37 16 14 1 28 8 31 13 4 6 21 9 38 6 38 -6 41 9 4 18 -47 10 -49 12 -13 13
19 0 53 -8 75 -18z m2405 -334 c80 -155 191 -389 332 -702 57 -127 109 -255
178 -440 26 -71 64 -170 84 -218 119 -285 215 -637 201 -732 -8 -55 -24 -92
-41 -99 -11 -4 -13 2 -8 32 9 58 -11 185 -51 322 -35 120 -59 184 -196 535
-34 88 -85 221 -114 295 l-51 135 -85 -3 c-46 -1 -99 -5 -117 -8 -46 -7 -33
12 16 25 20 6 67 11 103 13 l66 3 -64 140 c-62 135 -176 400 -214 498 -11 26
-53 115 -95 198 -72 144 -124 270 -124 300 0 27 92 -124 180 -294z m-780 193
c0 -11 -2 -20 -4 -20 -2 0 -6 9 -9 20 -3 11 -1 20 4 20 5 0 9 -9 9 -20z
m-3283 -42 c-3 -8 -6 -5 -6 6 -1 11 2 17 5 13 3 -3 4 -12 1 -19z m3691 -561
c17 -10 32 -25 32 -33 0 -10 -18 -2 -55 22 -30 20 -55 38 -55 39 0 7 48 -10
78 -28z m1105 -108 c-9 -9 -95 -42 -155 -59 -16 -5 -28 -5 -28 -1 0 4 19 14
43 21 23 7 62 23 87 35 42 22 73 24 53 4z m-5571 -341 c-5 -46 -16 -100 -25
-119 -36 -77 -80 -259 -178 -734 -57 -278 -92 -491 -83 -517 3 -10 1 -18 -4
-18 -23 0 -62 -328 -69 -573 -6 -215 0 -266 43 -363 18 -42 21 -54 10 -54 -24
0 -85 81 -103 135 -21 68 -29 360 -13 509 25 232 154 993 175 1025 3 5 18 67
34 138 35 157 205 672 218 660 2 -3 0 -43 -5 -89z m4779 -208 c6 -19 25 -82
44 -140 89 -277 139 -492 199 -845 62 -367 65 -389 82 -595 22 -275 5 -468
-47 -541 -21 -30 -39 -38 -39 -16 0 6 7 39 15 72 43 173 24 532 -51 950 -58
325 -146 734 -189 881 -86 291 -115 413 -109 454 6 38 7 36 46 -73 21 -62 44
-128 49 -147z m-3983 -215 c24 -38 59 -88 77 -110 18 -22 47 -69 65 -104 30
-61 52 -87 133 -154 20 -17 37 -35 37 -39 0 -8 -16 4 -94 71 -58 51 -72 68
-110 133 -15 26 -57 80 -93 120 -75 83 -111 153 -119 230 l-6 53 32 -65 c18
-36 53 -96 78 -135z m4277 105 c19 -8 19 -9 -2 -9 -13 -1 -26 -1 -30 -2 -4 0
-9 4 -11 10 -4 13 15 13 43 1z m-5526 -124 c29 -16 59 -46 45 -46 -5 0 -29 14
-54 30 -46 31 -41 41 9 16z m876 -221 c51 -18 25 -19 -40 -1 -32 9 -41 14 -25
15 14 0 43 -6 65 -14z m761 -226 c16 -17 56 -54 89 -82 66 -55 205 -209 205
-226 0 -37 -59 16 -148 133 -67 89 -92 112 -92 82 0 -9 -4 -16 -9 -16 -9 0
-91 118 -91 132 0 16 17 8 46 -23z m-424 -243 c24 -18 51 -83 38 -91 -6 -3
-10 -2 -10 3 0 5 -11 7 -25 4 -16 -3 -25 -11 -25 -23 0 -11 5 -19 10 -19 6 0
10 -9 10 -20 0 -11 -4 -20 -10 -20 -5 0 -10 8 -10 18 0 9 -11 25 -24 35 -17
13 -22 24 -18 44 4 22 2 25 -12 20 -10 -4 -22 -7 -27 -7 -5 0 0 -13 11 -28 21
-28 39 -87 40 -128 0 -22 -28 -38 -136 -79 -77 -29 -135 -59 -203 -103 l-54
-36 -18 23 c-23 28 -59 124 -59 157 0 93 145 190 365 243 95 23 134 25 157 7z
m3358 -22 c177 -45 340 -142 340 -204 0 -34 -22 -123 -42 -169 l-19 -44 -16
22 c-15 23 -100 66 -178 91 -22 7 -86 34 -143 61 l-103 48 16 38 c9 21 25 53
36 71 21 37 24 46 9 37 -5 -3 -20 -28 -34 -55 -26 -51 -81 -109 -104 -110 -9
0 -11 -7 -7 -22 5 -17 0 -14 -16 10 l-22 33 22 82 c17 66 28 88 56 115 40 37
39 37 205 -4z m-3944 -91 l-15 -28 -1 31 c0 17 3 47 7 65 l7 34 9 -37 c6 -27
5 -43 -7 -65z m4342 41 c0 -43 -1 -45 -14 -26 -9 13 -12 32 -8 51 9 44 22 29
22 -25z m-2815 -107 c41 -35 111 -89 155 -122 45 -32 79 -61 77 -63 -9 -9
-178 94 -229 140 -68 60 -131 137 -98 119 12 -6 54 -40 95 -74z m-879 57 c11
-27 7 -37 -9 -24 -16 14 -20 40 -6 40 5 0 12 -7 15 -16z m-30 -29 c3 -8 1 -15
-4 -15 -6 0 -10 7 -10 15 0 8 2 15 4 15 2 0 6 -7 10 -15z m-991 -102 c-13 -2
-33 -2 -45 0 -13 2 -3 4 22 4 25 0 35 -2 23 -4z m77 -13 c18 -12 2 -12 -25 0
-13 6 -15 9 -5 9 8 0 22 -4 30 -9z m2340 -128 c85 -65 124 -101 118 -107 -9
-10 -191 129 -221 168 -38 50 -33 57 11 16 20 -19 62 -54 92 -77z m-2014 -112
c2 -19 8 -96 14 -170 23 -292 87 -854 110 -970 21 -104 58 -203 96 -259 43
-63 25 -70 -37 -14 -56 50 -96 136 -125 262 -22 98 -58 411 -84 731 -6 74 -15
179 -20 233 -6 54 -10 150 -9 215 l0 117 26 -55 c13 -30 27 -71 29 -90z m3939
120 c3 -6 -1 -7 -9 -4 -18 7 -21 14 -7 14 6 0 13 -4 16 -10z m375 -445 c-15
-227 -36 -447 -61 -630 -41 -296 -110 -452 -214 -489 -19 -7 -19 -7 1 16 55
62 110 233 142 438 42 263 51 357 76 770 12 189 17 221 37 265 l24 50 3 -125
c2 -69 -1 -201 -8 -295z m-2951 224 c69 -119 167 -254 217 -300 32 -29 94 -69
108 -69 14 0 -24 39 -44 45 -22 7 -32 41 -16 54 8 7 20 -1 41 -26 17 -21 54
-66 83 -102 56 -69 142 -231 212 -397 50 -118 102 -272 98 -286 -6 -18 -96
137 -153 265 -88 193 -160 313 -210 347 -79 54 -118 48 -189 -30 -33 -37 -42
-41 -73 -38 -34 4 -36 2 -55 -41 -11 -25 -26 -73 -34 -106 -29 -118 -51 -149
-52 -73 -1 22 -6 45 -13 49 -11 6 -11 12 0 31 13 26 10 125 -8 278 -13 100
-16 392 -5 468 3 29 11 51 17 49 5 -1 40 -55 76 -118z m1650 -114 c0 -93 -6
-294 -14 -447 -10 -187 -11 -287 -4 -310 10 -36 3 -108 -12 -108 -8 0 -13 65
-10 135 3 53 -47 224 -84 291 -20 35 -38 64 -40 64 -1 0 5 -22 16 -50 10 -27
16 -50 11 -50 -4 0 -2 -4 4 -8 6 -4 14 -21 17 -38 11 -58 -23 -34 -71 50 -65
111 -100 146 -146 146 -20 0 -56 -10 -79 -22 -23 -12 -45 -21 -50 -20 -21 6
-93 -139 -177 -358 -18 -47 -56 -141 -85 -210 -29 -69 -56 -136 -59 -150 -3
-14 -3 9 -1 51 10 167 207 650 320 783 86 101 225 288 225 303 0 7 4 13 10 13
6 0 9 -3 9 -7 -1 -5 -1 -21 0 -38 2 -28 3 -29 14 -10 7 11 18 21 25 23 14 2
-5 -41 -40 -91 -11 -16 -18 -30 -16 -32 2 -3 38 46 78 108 40 61 90 134 109
160 l36 48 6 -28 c4 -15 7 -104 8 -198z m1005 185 c35 -13 33 -32 -13 -171
-72 -214 -177 -390 -286 -483 -74 -62 -133 -91 -171 -82 -25 7 -24 8 32 42
140 84 220 204 353 529 34 82 59 155 57 162 -6 16 -5 16 28 3z m-3724 -14 c0
-8 7 -27 15 -43 8 -15 31 -73 51 -128 89 -246 258 -508 352 -547 26 -11 26
-12 4 -16 -58 -10 -166 73 -254 194 -73 102 -117 191 -168 339 -57 165 -62
193 -41 205 23 14 41 12 41 -4z m1443 -98 c12 -7 24 -15 27 -18 39 -39 177
-105 262 -125 152 -36 279 -15 455 74 45 22 93 40 106 39 l24 -2 -19 -36 c-11
-19 -60 -89 -108 -155 -85 -117 -139 -212 -181 -318 -51 -130 -153 -347 -159
-340 -4 4 -28 64 -55 133 -63 165 -161 356 -235 455 -98 133 -190 269 -190
281 0 7 11 9 26 6 19 -3 25 -1 20 7 -9 14 -1 14 27 -1z m3065 -503 c-6 -14
-15 -25 -20 -25 -9 0 -4 14 15 38 15 19 18 14 5 -13z m-1274 -243 c7 -12 -37
-182 -74 -282 -40 -108 -114 -250 -158 -301 -38 -44 -116 -94 -132 -84 -6 4
11 30 43 65 90 97 137 194 271 563 16 43 37 60 50 39z m-2730 -34 c8 -18 39
-107 71 -198 67 -196 121 -301 193 -381 42 -47 50 -59 34 -59 -25 0 -87 46
-136 100 -58 65 -156 296 -196 464 -25 101 -25 106 1 106 13 0 24 -11 33 -32z"/>
<path d="M5955 9310 c19 -8 73 -14 64 -6 -2 2 -22 6 -44 9 -28 5 -34 4 -20 -3z"/>
<path d="M6055 9290 c17 -4 39 -8 50 -8 16 0 15 2 -5 8 -14 4 -36 8 -50 8 -22
0 -22 -1 5 -8z"/>
<path d="M6395 9190 c3 -5 8 -10 11 -10 2 0 4 5 4 10 0 6 -5 10 -11 10 -5 0
-7 -4 -4 -10z"/>
<path d="M6420 9186 c0 -2 7 -7 16 -10 8 -3 12 -2 9 4 -6 10 -25 14 -25 6z"/>
<path d="M6388 8993 c7 -3 16 -2 19 1 4 3 -2 6 -13 5 -11 0 -14 -3 -6 -6z"/>
<path d="M3685 8920 c-3 -6 1 -7 9 -4 18 7 21 14 7 14 -6 0 -13 -4 -16 -10z"/>
<path d="M5388 8893 c6 -2 18 -2 25 0 6 3 1 5 -13 5 -14 0 -19 -2 -12 -5z"/>
<path d="M3585 8882 c-6 -5 -39 -21 -75 -37 -119 -51 -294 -141 -345 -176
-142 -98 -221 -176 -201 -196 3 -3 27 8 53 25 26 17 71 40 98 52 28 11 55 26
60 33 6 7 37 27 70 43 98 51 309 171 328 188 9 9 20 16 23 15 3 0 9 3 12 7 4
4 2 4 -5 0 -20 -11 -26 14 -7 35 17 18 8 27 -11 11z"/>
<path d="M5901 8835 c3 -2 30 -7 60 -9 39 -4 46 -3 24 3 -33 10 -91 14 -84 6z"/>
<path d="M6031 8816 c12 -10 60 -16 54 -6 -3 5 -18 10 -32 10 -15 0 -24 -2
-22 -4z"/>
<path d="M4145 8800 c-16 -7 -17 -9 -3 -9 9 -1 20 4 23 9 7 11 7 11 -20 0z"/>
<path d="M5785 8802 c-25 -4 -20 -7 35 -18 66 -13 100 -10 100 7 0 5 -15 9
-32 9 -18 0 -42 2 -53 4 -11 2 -33 1 -50 -2z"/>
<path d="M3945 8746 c-170 -49 -393 -129 -519 -187 -72 -33 -144 -67 -161 -74
-16 -8 -56 -25 -88 -39 -64 -28 -113 -63 -197 -141 -30 -28 -68 -60 -85 -72
-37 -27 -28 -40 14 -19 16 9 37 16 46 16 9 0 72 29 138 64 213 112 319 163
442 216 200 87 264 111 404 155 101 32 128 44 110 48 -13 4 -33 7 -44 7 -17 0
-17 -2 -5 -10 8 -5 11 -10 5 -10 -5 1 -19 7 -29 15 -14 11 -16 15 -5 15 8 0
28 9 44 20 37 25 30 24 -70 -4z"/>
<path d="M4198 8743 c7 -3 16 -2 19 1 4 3 -2 6 -13 5 -11 0 -14 -3 -6 -6z"/>
<path d="M6690 8210 c-9 -6 -10 -10 -3 -10 6 0 15 5 18 10 8 12 4 12 -15 0z"/>
<path d="M6720 8194 c0 -8 5 -12 10 -9 6 4 8 11 5 16 -9 14 -15 11 -15 -7z"/>
<path d="M6283 7273 c9 -2 23 -2 30 0 6 3 -1 5 -18 5 -16 0 -22 -2 -12 -5z"/>
<path d="M1520 6139 c0 -5 5 -7 10 -4 6 3 10 8 10 11 0 2 -4 4 -10 4 -5 0 -10
-5 -10 -11z"/>
<path d="M1389 5742 c5 -10 18 -25 27 -33 11 -9 9 -2 -6 19 -26 35 -36 42 -21
14z"/>
<path d="M1465 5660 c3 -5 8 -10 11 -10 2 0 4 5 4 10 0 6 -5 10 -11 10 -5 0
-7 -4 -4 -10z"/>
<path d="M1615 5550 c3 -5 11 -10 16 -10 6 0 7 5 4 10 -3 6 -11 10 -16 10 -6
0 -7 -4 -4 -10z"/>
<path d="M1808 5449 c18 -12 35 -19 38 -16 3 3 -8 13 -25 21 -43 23 -52 19
-13 -5z"/>
<path d="M4310 6374 c-187 -18 -374 -85 -489 -177 -61 -49 -131 -155 -131
-199 0 -34 1 -34 48 -4 51 32 204 92 282 110 108 26 327 31 450 11 187 -31
176 -31 215 8 30 30 35 42 35 82 0 41 -5 52 -35 81 -71 66 -221 102 -375 88z"/>
<path d="M5756 6369 c-151 -22 -236 -67 -255 -134 -18 -66 26 -146 81 -148 13
0 74 10 137 22 230 47 530 11 732 -87 44 -21 82 -36 83 -33 2 3 -3 26 -10 51
-26 88 -131 182 -279 251 -98 45 -167 64 -290 78 -101 12 -115 12 -199 0z"/>
<path d="M2757 6060 c-10 -16 -16 -30 -14 -30 10 0 47 38 47 49 0 20 -15 12
-33 -19z"/>
<path d="M4112 5780 c-121 -32 -256 -129 -316 -228 -43 -71 -56 -122 -57 -211
-1 -61 3 -78 30 -123 l31 -53 0 61 c0 71 31 183 65 235 37 57 95 107 165 142
53 26 77 32 140 34 68 2 71 1 31 -7 -86 -18 -157 -75 -204 -164 -32 -61 -31
-211 1 -281 49 -107 151 -177 257 -177 135 0 251 95 286 234 12 49 6 141 -11
168 -8 13 -12 11 -25 -8 -20 -28 -86 -62 -121 -62 -60 0 -124 52 -139 113 -11
41 28 112 78 141 44 27 44 28 -38 40 -16 2 4 3 45 2 84 -3 166 -32 213 -75 58
-53 126 -167 145 -241 15 -63 19 -16 6 73 -31 205 -179 359 -381 397 -78 14
-116 12 -201 -10z"/>
<path d="M5890 5786 c-102 -22 -172 -60 -239 -131 -66 -71 -94 -131 -118 -258
-17 -94 -14 -146 6 -77 20 69 75 170 120 222 24 27 66 59 99 75 56 27 60 28
210 26 146 -3 155 -4 210 -32 84 -43 144 -100 185 -178 35 -69 64 -153 69
-208 4 -44 30 -38 47 10 10 31 11 56 3 115 -22 158 -94 277 -220 361 -117 78
-239 103 -372 75z"/>
<path d="M5891 5627 l-34 -13 39 -20 c51 -26 89 -98 80 -148 -7 -38 -61 -92
-102 -102 -37 -9 -108 14 -143 48 l-30 29 -10 -38 c-28 -100 -2 -198 73 -280
68 -75 114 -98 196 -97 122 2 241 83 277 188 23 71 21 189 -4 247 -61 135
-231 228 -342 186z"/>
<path d="M5200 5213 c8 -3 21 -10 28 -16 9 -7 11 -6 6 7 -3 9 -16 16 -28 15
-14 0 -16 -2 -6 -6z"/>
<path d="M4959 5163 l-24 -28 28 24 c25 23 32 31 24 31 -2 0 -14 -12 -28 -27z"/>
<path d="M5264 5171 c21 -23 26 -26 26 -11 0 5 -10 15 -22 21 -23 12 -23 12
-4 -10z"/>
<path d="M5515 4599 c4 -20 3 -39 -2 -42 -5 -3 -28 -1 -52 4 -32 7 -59 6 -109
-7 -37 -9 -71 -20 -77 -24 -19 -15 -133 -40 -184 -40 -35 0 -80 11 -141 35
-73 29 -102 35 -157 34 -38 -1 -60 -3 -50 -6 9 -2 17 -8 17 -12 0 -12 -34 -9
-42 3 -4 6 -8 25 -8 41 l-1 30 -19 -35 c-23 -43 -25 -86 -5 -134 9 -20 13 -41
11 -45 -3 -5 -44 -11 -91 -15 -47 -4 -118 -13 -158 -21 -40 -7 -88 -13 -109
-13 -130 0 -312 -122 -371 -250 -17 -36 -22 -66 -22 -127 0 -80 13 -119 58
-180 15 -19 16 -19 22 10 21 103 43 137 125 195 32 23 32 23 21 2 -7 -12 -16
-22 -21 -22 -6 0 -10 -4 -10 -8 0 -5 10 -8 22 -8 15 1 47 -28 109 -101 89
-101 231 -220 316 -262 134 -67 269 -97 485 -108 337 -17 619 87 810 299 170
188 188 201 233 166 36 -28 57 -74 64 -138 l6 -55 27 45 c65 110 69 120 69
187 0 86 -33 154 -108 223 -83 76 -244 148 -299 134 -11 -3 -53 2 -94 11 -41
8 -117 18 -167 22 -51 3 -93 7 -93 8 0 1 9 28 20 61 23 66 21 103 -11 149
l-20 30 6 -36z m470 -548 l30 -13 -25 -13 c-37 -19 -254 -60 -465 -87 -229
-29 -576 -31 -785 -4 -119 15 -519 81 -545 90 -17 6 67 25 150 34 44 5 424 8
845 7 595 -1 772 -4 795 -14z m-1490 -165 c44 -9 181 -28 305 -42 192 -23 250
-25 395 -20 94 3 213 12 265 20 154 24 403 56 408 52 2 -2 -34 -42 -80 -89
-68 -69 -98 -92 -168 -125 -82 -40 -192 -74 -275 -87 -22 -3 -105 -8 -185 -11
-171 -7 -297 9 -441 55 -123 40 -207 91 -285 174 -67 71 -81 103 -41 94 12 -3
58 -12 102 -21z"/>
<path d="M6845 9423 c23 -16 38 -17 33 -1 -2 6 -15 12 -28 13 -21 2 -22 1 -5
-12z"/>
<path d="M7840 9240 c0 -33 3 -40 20 -40 17 0 20 7 20 40 0 33 -3 40 -20 40
-17 0 -20 -7 -20 -40z"/>
<path d="M7315 9060 c3 -5 11 -10 16 -10 6 0 7 5 4 10 -3 6 -11 10 -16 10 -6
0 -7 -4 -4 -10z"/>
<path d="M7385 8980 c3 -5 8 -10 11 -10 2 0 4 5 4 10 0 6 -5 10 -11 10 -5 0
-7 -4 -4 -10z"/>
<path d="M7410 8952 c0 -4 15 -25 34 -45 18 -20 31 -39 28 -41 -3 -3 7 0 21 7
23 10 24 13 9 21 -9 5 -21 14 -25 20 -6 7 -7 4 -3 -6 8 -27 -13 -21 -26 7 -6
14 -15 25 -20 25 -5 0 -6 5 -3 10 3 6 1 10 -4 10 -6 0 -11 -4 -11 -8z"/>
<path d="M320 8680 l0 -40 40 0 40 0 0 -40 c0 -33 3 -40 20 -40 13 0 20 -7 20
-20 0 -13 7 -20 20 -20 18 0 20 7 20 60 l0 60 -40 0 -40 0 0 40 0 40 -40 0
-40 0 0 -40z"/>
<path d="M480 8700 c0 -13 7 -20 20 -20 13 0 20 7 20 20 0 13 -7 20 -20 20
-13 0 -20 -7 -20 -20z"/>
<path d="M6620 941 c0 -6 4 -13 10 -16 6 -3 7 1 4 9 -7 18 -14 21 -14 7z"/>
<path d="M3587 923 c-4 -3 -7 -11 -7 -17 0 -6 5 -5 12 2 6 6 9 14 7 17 -3 3
-9 2 -12 -2z"/>
<path d="M6415 700 c-21 -21 -68 -55 -104 -74 -36 -20 -61 -36 -54 -36 39 -1
219 128 202 144 -3 3 -23 -12 -44 -34z"/>
<path d="M6218 583 c7 -3 16 -2 19 1 4 3 -2 6 -13 5 -11 0 -14 -3 -6 -6z"/>
<path d="M5191 437 c-14 -6 -26 -19 -28 -27 -3 -10 -2 -11 4 -4 4 6 22 18 38
27 35 19 22 23 -14 4z"/>
<path d="M5010 430 c0 -5 8 -10 18 -10 9 0 28 -3 42 -5 16 -3 12 0 -10 9 -43
18 -50 19 -50 6z"/>
<path d="M1920 40 l0 -40 200 0 c193 0 200 1 200 20 0 18 -7 20 -60 20 -53 0
-60 2 -60 20 0 19 -7 20 -140 20 l-140 0 0 -40z"/>
<path d="M4160 60 c0 -17 -7 -20 -40 -20 -33 0 -40 -3 -40 -20 0 -19 7 -20
240 -20 233 0 240 1 240 20 0 17 -7 20 -40 20 -33 0 -40 3 -40 20 0 19 -7 20
-160 20 -153 0 -160 -1 -160 -20z"/>
<path d="M32 20 c0 -14 2 -19 5 -12 2 6 2 18 0 25 -3 6 -5 1 -5 -13z"/>
<path d="M4960 20 c0 -18 7 -20 80 -20 73 0 80 2 80 20 0 18 -7 20 -80 20 -73
0 -80 -2 -80 -20z"/>
</g>
</svg>
